# Blender 5.1.0
# www.blender.org
mtllib Pino3.mtl
o Tree_Pine_T3_Tree_Pine_0
v -0.553684 2.780128 -0.419407
v -0.753267 0.722885 2.329841
v 2.680547 0.513495 1.903161
v 1.947638 1.153650 -1.706456
v 0.091983 3.258130 0.743061
v 2.063390 0.729230 0.116477
v 0.607528 1.023926 -3.183890
v -2.417881 1.807202 -1.142862
v 0.143097 2.192847 -0.658162
v -2.576510 0.558616 0.133221
v -1.972838 1.043669 3.090772
v 1.301970 1.602043 2.095815
v -0.067346 10.197352 -0.469910
v -1.032340 8.723159 -0.941390
v -1.020002 9.047467 0.782379
v 0.902935 9.041827 -0.141194
v -0.031179 10.191557 -0.281119
v -0.173716 9.394238 0.980554
v 0.977497 8.924955 0.291940
v -0.013451 9.149817 -0.951236
v 0.180291 10.260099 -0.211697
v 1.444036 8.967800 -0.632064
v -0.327322 8.332580 -1.487779
v -1.196257 9.015037 0.214840
v 0.214480 7.200593 -0.630844
v -1.792178 3.021949 -1.229227
v -4.053523 5.478233 1.658703
v 1.366304 4.525049 2.589327
v -0.754920 7.404342 0.023060
v -0.591884 3.863037 3.682987
v 3.294531 4.203305 2.330966
v 1.300208 4.225414 -2.026779
v -0.210832 7.319035 0.414400
v 2.951183 3.758693 0.145508
v 2.633602 5.063681 -3.631343
v -2.346085 4.889542 -1.386918
v 0.283220 8.707215 -0.347956
v -0.997270 5.615710 -1.761517
v -3.388162 6.917175 -0.387613
v 0.195092 6.972167 2.005924
v -0.507282 8.839054 -0.219291
v -1.456413 6.064103 1.608470
v 1.656242 6.977103 2.578751
v 1.369829 6.731755 -1.432802
v -0.128335 8.782652 0.377331
v 1.785789 5.744729 0.550943
v 2.422949 7.000367 -2.210966
v -1.734014 6.974281 -1.298849
v 0.054950 9.585460 0.009861
v 1.660992 7.694799 -0.542457
v -0.216709 7.744775 -2.229670
v -1.397073 7.965079 0.415191
v -0.009363 9.391091 -0.519805
v -1.291615 7.338783 -0.459877
v -1.661749 8.335680 1.624332
v 1.131004 8.153080 1.010967
v -0.460575 9.627273 -0.147026
v -0.848334 8.285624 1.884308
v 1.931199 8.093153 1.241860
v 0.646304 7.632776 -1.018604
v 0.364297 7.950027 -0.105606
v 0.193330 4.846536 -2.036474
v -2.613523 6.066922 -2.249742
v -1.031639 6.210747 1.784724
v -0.340721 8.020528 -0.436083
v -1.777196 5.071437 0.785362
v -0.205887 6.411678 3.145410
v 1.939131 6.119799 -0.377919
v -0.412986 7.993737 0.246022
v 0.930074 5.227952 1.501836
v 2.950832 6.698619 -0.548886
v -0.574259 5.877977 -1.910452
v 0.635393 6.142774 0.568938
v 1.796085 1.309873 -2.138559
v -2.405081 4.182821 -4.294522
v -2.652314 2.368812 2.027950
v -0.645642 6.582996 0.140270
v -3.426057 1.824829 1.170479
v 0.767920 2.423390 4.802203
v 2.948188 3.366703 -1.364062
v -0.548702 6.282658 0.445190
v 1.851004 2.222459 2.733856
v 4.475433 3.470340 -1.763279
v -1.449362 2.884470 -2.825212
v 0.419817 5.182125 -0.727784
v -2.856755 1.779002 -1.135812
v -4.237709 3.597245 2.455374
v 1.104566 3.234161 2.956818
v -1.307477 4.524343 -0.181394
v -0.725837 0.906191 4.653269
v 5.076462 0.524070 2.757651
v 2.608017 1.665493 -3.245579
v 0.486217 3.907481 -0.389683
v -2.611712 0.734000 -1.895432
v -4.169581 1.150059 2.001930
v 0.826905 1.653547 2.953549
v -0.567208 3.922962 0.219585
v 0.939768 0.272379 2.105509
v 3.981920 2.689180 0.048618
v 0.140453 0.894203 -2.570524
v -0.240891 4.757997 1.369931
v 4.176636 0.943420 -0.041241
v 2.045145 1.784410 -5.982410
v -3.782579 2.107543 -2.803566
v 0.014323 5.275892 0.111330
v 0.078832 5.275892 -0.086428
v -0.001329 9.850594 -0.331141
v -0.089315 5.275892 -0.208044
v -0.257462 5.275892 -0.086428
v -0.001329 9.850594 -0.331141
v -0.001329 9.850594 -0.331141
v -0.257462 5.275892 -0.086428
v -0.194010 5.275892 0.111330
v -0.001329 9.850594 -0.331141
v -0.001329 9.850594 -0.331141
v -0.045783 9.466519 -0.394233
v -1.181719 10.334762 0.094580
v 0.065201 11.388737 -0.314700
v 1.059429 10.252590 0.357558
v -0.219445 2.477777 -0.142808
v 0.051372 2.459078 -0.338183
v 0.323157 2.477777 -0.142808
v 0.366893 1.657381 -0.175550
v 0.047872 1.634769 -0.404731
v 0.219666 2.508727 0.172501
v 0.244968 1.693439 0.195724
v -0.198727 1.137904 0.201224
v -0.148307 1.693439 0.195724
v -0.270231 1.657381 -0.175550
v -0.323401 1.137904 -0.181050
v -0.115954 2.508727 0.172501
v -0.219445 2.477777 -0.142808
v -0.429599 0.000241 -0.179889
v -0.323401 1.137904 -0.181050
v 0.002036 1.137904 -0.417565
v -0.001518 0.000241 -0.491737
v -0.429599 0.000241 -0.179889
v -0.266116 0.000241 0.322847
v 0.203716 1.137904 0.201224
v 0.263080 0.000241 0.322847
v 0.427509 0.000241 -0.179889
v 0.328390 1.137904 -0.181050
v -0.270231 1.657381 -0.175550
vn 0.3755 0.8682 0.3244
vn 0.1228 0.7903 0.6003
vn 0.3548 0.8664 0.3514
vn 0.5571 0.8298 0.0340
vn 0.3360 0.8369 -0.4321
vn 0.7277 0.6328 -0.2645
vn 0.3285 0.8388 -0.4341
vn -0.1174 0.8565 -0.5027
vn -0.2990 0.9465 0.1214
vn -0.5219 0.8524 -0.0333
vn -0.3276 0.9392 0.1030
vn -0.0901 0.9653 0.2450
vn -0.1998 0.7927 0.5759
vn -0.8173 0.5673 -0.1009
vn -0.4489 0.8017 0.3947
vn 0.3691 0.5276 0.7652
vn 0.7990 0.5941 -0.0933
vn 0.5631 0.6683 0.4860
vn 0.7717 0.6345 0.0440
vn 0.7600 0.3607 -0.5406
vn -0.2308 0.5786 -0.7823
vn 0.2275 0.4952 -0.8385
vn -0.2464 0.5793 -0.7770
vn -0.6492 0.5313 -0.5443
vn -0.3413 0.9374 0.0690
vn -0.5508 0.3715 -0.7473
vn -0.4558 0.8681 -0.1967
vn 0.0274 0.7737 0.6330
vn 0.5558 0.8163 0.1570
vn 0.1745 0.7115 0.6807
vn 0.4858 0.8243 0.2909
vn 0.6924 0.6498 -0.3136
vn 0.1402 0.9035 -0.4051
vn 0.7439 0.6485 0.1615
vn 0.4169 0.8864 -0.2010
vn -0.3039 0.7252 -0.6179
vn -0.4383 0.8988 0.0103
vn -0.2253 0.4808 -0.8474
vn -0.3995 0.8280 -0.3934
vn -0.3732 0.7534 0.5414
vn 0.3107 0.8844 0.3483
vn -0.3931 0.5958 0.7004
vn 0.1443 0.8716 0.4685
vn 0.7161 0.6917 -0.0934
vn 0.2914 0.8976 -0.3309
vn 0.7629 0.5039 0.4051
vn 0.5389 0.8410 -0.0479
vn -0.1486 0.7400 -0.6560
vn -0.2177 0.7668 -0.6038
vn 0.5331 0.6208 -0.5749
vn -0.0450 0.7744 -0.6311
vn -0.7350 0.5648 -0.3751
vn -0.3397 0.9208 0.1915
vn -0.7920 0.4840 -0.3721
vn -0.4719 0.8790 0.0690
vn 0.1722 0.8247 0.5387
vn 0.5063 0.8589 0.0769
vn 0.1864 0.8031 0.5660
vn 0.5219 0.8520 0.0424
vn 0.6541 0.5768 -0.4893
vn -0.3849 0.8894 -0.2465
vn 0.2783 0.4963 -0.8223
vn -0.1249 0.8250 -0.5511
vn -0.6297 0.7449 0.2204
vn 0.0342 0.9121 0.4085
vn -0.8218 0.5075 0.2589
vn -0.3063 0.8640 0.3996
vn 0.6047 0.7348 0.3073
vn 0.3397 0.9364 -0.0882
vn 0.3828 0.5296 0.7570
vn 0.3851 0.9115 0.1444
vn 0.1062 0.7058 -0.7004
vn -0.1813 0.9462 -0.2680
vn 0.6387 0.4871 -0.5956
vn 0.0414 0.9175 -0.3956
vn -0.7101 0.6837 0.1684
vn 0.1648 0.7603 0.6284
vn -0.6093 0.4909 0.6227
vn -0.0216 0.7427 0.6692
vn 0.7020 0.6237 0.3436
vn 0.4033 0.8894 -0.2151
vn 0.5798 0.6323 0.5138
vn 0.4588 0.8847 -0.0829
vn 0.0628 0.6834 -0.7274
vn -0.2913 0.9553 0.0494
vn -0.5759 0.6185 -0.5346
vn -0.3823 0.9184 -0.1021
vn 0.0165 0.8852 0.4649
vn 0.4300 0.8682 0.2477
vn 0.2363 0.7914 0.5638
vn 0.4151 0.8664 0.2775
vn 0.5524 0.8307 -0.0692
vn -0.4195 0.8847 0.2033
vn -0.5987 0.7352 -0.3178
vn -0.4735 0.8763 0.0886
vn -0.1882 0.8053 0.5621
vn 0.2621 0.9650 0.0101
vn 0.1692 0.5066 0.8454
vn 0.2637 0.9470 0.1833
vn 0.1602 0.6888 -0.7070
vn 0.2387 0.9238 -0.2994
vn 0.6276 0.7698 -0.1162
vn 0.2482 0.9224 -0.2959
vn -0.1774 0.8919 -0.4159
vn 0.5712 0.0705 0.8178
vn 0.9520 0.0458 -0.3025
vn 0.0188 0.9977 -0.0658
vn -0.0139 0.0095 -0.9999
vn -0.9555 0.0154 -0.2947
vn 0.0187 0.9977 -0.0657
vn -0.5899 0.0509 0.8059
vn 0.1084 0.0348 -0.9935
vn -0.3561 0.0591 -0.9326
vn 0.1248 0.0338 -0.9916
vn 0.5616 0.0018 -0.8274
vn -0.9495 0.0331 -0.3120
vn 0.0086 0.0650 -0.9979
vn 0.9488 0.0748 -0.3070
vn 0.9512 -0.0018 -0.3084
vn 0.0169 0.0489 -0.9987
vn 0.5929 0.0522 0.8036
vn 0.5976 0.0029 0.8018
vn -0.5974 0.0933 0.7965
vn -0.5792 0.0529 0.8135
vn -0.9439 0.0870 -0.3186
vn -0.9458 0.0941 -0.3109
vn -0.5797 0.0232 0.8145
vn -0.9495 0.0331 -0.3121
vn -0.9507 0.0887 -0.2971
vn -0.9458 0.0941 -0.3108
vn -0.0159 0.0458 -0.9988
vn -0.0018 0.0648 -0.9979
vn -0.5791 0.1204 0.8063
vn 0.5792 0.0417 0.8141
vn 0.5773 0.1165 0.8082
vn 0.9510 0.0826 -0.2979
vn 0.9476 0.0092 -0.3193
vt 0.997234 0.005105
vt 0.502854 0.005105
vt 0.502854 0.995305
vt 0.997234 0.995305
vt 0.202429 0.485519
vt 0.298504 0.485519
vt 0.202429 -2.479092
vt 0.394738 0.485519
vt 0.490786 0.485519
vt 0.394738 -2.479091
vt 0.298503 -2.479091
vt 0.010289 0.485518
vt 0.106321 0.485519
vt 0.010289 -2.479095
vt 0.106321 -2.479093
vt 0.490786 2.011520
vt 0.394738 2.011520
vt 0.298504 2.011519
vt 0.298504 2.437831
vt 0.394738 2.437831
vt 0.202429 2.011519
vt 0.202429 2.437831
vt 0.106321 2.772127
vt 0.106321 2.437831
vt 0.010289 2.437831
vt 0.010289 2.772126
vt 0.106321 2.011519
vt 0.010289 2.011518
vt 0.490786 3.373043
vt 0.490786 2.772127
vt 0.394738 2.772127
vt 0.394738 3.373043
vt 0.010289 3.373043
vt 0.106321 3.373043
vt 0.202429 2.772127
vt 0.202429 3.373043
vt 0.298504 3.373043
vt 0.298504 2.772127
vt 0.490786 2.437831
s 1
usemtl Tree_Pine
f 1/1/1 2/2/2 3/3/3
f 1/1/1 3/3/3 4/4/4
f 5/1/5 6/2/6 7/3/7
f 5/1/5 7/3/7 8/4/8
f 9/1/9 10/2/10 11/3/11
f 9/1/9 11/3/11 12/4/12
f 13/1/13 14/2/14 15/3/15
f 13/1/13 15/3/15 16/4/16
f 17/1/17 18/2/18 19/3/19
f 17/1/17 19/3/19 20/4/20
f 21/1/21 22/2/22 23/3/23
f 21/1/21 23/3/23 24/4/24
f 25/1/25 26/2/26 27/3/27
f 25/1/25 27/3/27 28/4/28
f 29/1/29 30/2/30 31/3/31
f 29/1/29 31/3/31 32/4/32
f 33/1/33 34/2/34 35/3/35
f 33/1/33 35/3/35 36/4/36
f 37/1/37 38/2/38 39/3/39
f 37/1/37 39/3/39 40/4/40
f 41/1/41 42/2/42 43/3/43
f 41/1/41 43/3/43 44/4/44
f 45/1/45 46/2/46 47/3/47
f 45/1/45 47/3/47 48/4/48
f 49/1/49 50/2/50 51/3/51
f 49/1/49 51/3/51 52/4/52
f 53/1/53 54/2/54 55/3/55
f 53/1/53 55/3/55 56/4/56
f 57/1/57 58/2/58 59/3/59
f 57/1/57 59/3/59 60/4/60
f 61/1/61 62/2/62 63/3/63
f 61/1/61 63/3/63 64/4/64
f 65/1/65 66/2/66 67/3/67
f 65/1/65 67/3/67 68/4/68
f 69/1/69 70/2/70 71/3/71
f 69/1/69 71/3/71 72/4/72
f 73/1/73 74/2/74 75/3/75
f 73/1/73 75/3/75 76/4/76
f 77/1/77 78/2/78 79/3/79
f 77/1/77 79/3/79 80/4/80
f 81/1/81 82/2/82 83/3/83
f 81/1/81 83/3/83 84/4/84
f 85/1/85 86/2/86 87/3/87
f 85/1/85 87/3/87 88/4/88
f 89/1/89 90/2/90 91/3/91
f 89/1/89 91/3/91 92/4/92
f 93/1/93 94/2/94 95/3/95
f 93/1/93 95/3/95 96/4/96
f 97/1/97 98/2/98 99/3/99
f 97/1/97 99/3/99 100/4/100
f 101/1/101 102/2/102 103/3/103
f 101/1/101 103/3/103 104/4/104
f 105/5/105 106/6/106 107/7/107
f 108/8/108 109/9/109 110/10/107
f 106/6/106 108/8/108 111/11/110
f 112/12/109 113/13/111 114/14/107
f 113/13/111 105/5/105 115/15/107
f 116/1/112 117/2/113 118/3/114
f 116/1/112 118/3/114 119/4/115
f 120/16/116 109/9/109 108/8/108
f 120/16/116 108/8/108 121/17/117
f 122/18/118 123/19/119 124/20/120
f 122/18/118 124/20/120 121/17/117
f 125/21/121 126/22/122 123/19/119
f 125/21/121 123/19/119 122/18/118
f 105/5/105 125/21/121 122/18/118
f 105/5/105 122/18/118 106/6/106
f 127/23/123 128/24/124 129/25/125
f 127/23/123 129/25/125 130/26/126
f 131/27/127 113/13/111 112/12/109
f 131/27/127 112/12/109 132/28/128
f 133/29/129 134/30/130 135/31/131
f 133/29/129 135/31/131 136/32/132
f 130/26/126 137/33/129 138/34/133
f 130/26/126 138/34/133 127/23/123
f 139/35/134 140/36/135 141/37/136
f 139/35/134 141/37/136 142/38/137
f 142/38/137 141/37/136 136/32/132
f 142/38/137 136/32/132 135/31/131
f 128/24/124 127/23/123 139/35/134
f 128/24/124 139/35/134 126/22/122
f 123/19/119 142/38/137 135/31/131
f 123/19/119 135/31/131 124/20/120
f 126/22/122 139/35/134 142/38/137
f 126/22/122 142/38/137 123/19/119
f 131/27/127 128/24/124 126/22/122
f 131/27/127 126/22/122 125/21/121
f 125/21/121 105/5/105 113/13/111
f 125/21/121 113/13/111 131/27/127
f 127/23/123 138/34/133 140/36/135
f 127/23/123 140/36/135 139/35/134
f 134/30/130 143/39/125 124/20/120
f 134/30/130 124/20/120 135/31/131
f 143/39/125 120/16/116 121/17/117
f 143/39/125 121/17/117 124/20/120
f 128/24/124 131/27/127 132/28/128
f 128/24/124 132/28/128 129/25/125
f 106/6/106 122/18/118 121/17/117
f 106/6/106 121/17/117 108/8/108
