# Blender 5.1.0
# www.blender.org
mtllib Puerta.mtl
o Material-material
v 0.107113 -2.253051 -0.045485
v 0.107113 -2.253051 -0.045485
v 0.107113 -2.253051 -0.045485
v 0.107113 2.436168 -0.045485
v 0.107113 2.436168 -0.045485
v 0.107113 2.436168 -0.045485
v 0.107113 -2.253050 1.957625
v 0.107113 -2.253050 1.957625
v 0.107113 -2.253050 1.957625
v 0.107113 2.436168 1.957624
v 0.107113 2.436168 1.957624
v 0.107113 2.436168 1.957624
v -0.123319 2.436168 -0.045485
v -0.123319 2.436168 -0.045485
v -0.123319 2.436168 -0.045485
v -0.123319 -2.253051 -0.045485
v -0.123319 -2.253051 -0.045485
v -0.123319 -2.253051 -0.045485
v -0.123319 -2.253050 1.957625
v -0.123319 -2.253050 1.957625
v -0.123319 -2.253050 1.957625
v -0.123319 2.436168 1.957624
v -0.123319 2.436168 1.957624
v -0.123319 2.436168 1.957624
vn 1.0000 -0.0000 -0.0000
vn -1.0000 -0.0000 -0.0000
vn -0.0000 -0.0000 1.0000
vn -0.0000 1.0000 -0.0000
vn -0.0000 -0.0000 -1.0000
vn -0.0000 -1.0000 -0.0000
vt 0.051954 0.017509
vt 0.948046 0.982491
vt 0.948046 0.017509
vt 0.730803 0.032700
vt 0.627719 0.997681
vt 0.730803 0.997681
vt 0.730803 0.309083
vt 0.627719 0.721298
vt 0.730803 0.721298
vt 0.711933 0.991171
vt 0.608849 0.026189
vt 0.711933 0.026189
vt 0.627719 0.309083
vt 0.051954 0.982491
vt 0.627719 0.032700
vt 0.608849 0.991171
s 0
usemtl Material.001
f 10/1/1 1/2/1 4/3/1
f 16/2/2 22/1/2 13/3/2
f 11/4/3 20/5/3 8/6/3
f 5/7/4 24/8/4 12/9/4
f 2/10/5 15/11/5 6/12/5
f 9/9/6 18/13/6 3/7/6
f 10/1/1 7/14/1 1/2/1
f 16/2/2 19/14/2 22/1/2
f 11/4/3 23/15/3 20/5/3
f 5/7/4 14/13/4 24/8/4
f 2/10/5 17/16/5 15/11/5
f 9/9/6 21/8/6 18/13/6
